<?xml version="1.0" encoding="utf-8"?>
<!-- Generator: Adobe Illustrator 19.2.1, SVG Export Plug-In . SVG Version: 6.00 Build 0)  -->
<svg version="1.1" id="Layer_1" xmlns="http://www.w3.org/2000/svg" xmlns:xlink="http://www.w3.org/1999/xlink" x="0px" y="0px"
	 viewBox="0 0 128 128" style="enable-background:new 0 0 128 128;" xml:space="preserve">
<style type="text/css">
	.st0{fill:#FFA800;}
	.st1{fill:#FFFFFF;}
</style>
<g>
	<circle class="st0" cx="64" cy="64" r="64"/>
	<g>
		<path class="st1" d="M79,41.7v11.4H53.3v13.6h22.2v11.4H53.3v23.5H41.5V41.7H79z"/>
	</g>
	<g>
		<path class="st1" d="M117.1,75.7c1.8,2.4,2.6,5.1,2.6,8.2c0,6.1-2,10.5-6,13.4c-4,2.8-8.9,4.3-14.9,4.3H79V41.7h17.5
			c6.3,0,11.3,1.3,14.9,3.9c3.6,2.6,5.4,6.3,5.4,11.2c0,3-0.6,5.6-1.9,7.8c-1.2,2.2-3,4-5.3,5.4C112.9,71.4,115.3,73.3,117.1,75.7z
			 M90.7,66.2h7.1c2.2,0,3.8-0.7,5-2c1.2-1.3,1.8-3,1.8-4.9c0-2-0.7-3.5-2-4.6c-1.4-1.1-3.2-1.6-5.6-1.6h-6.3V66.2z M105,88.9
			c1.7-1.1,2.6-2.8,2.6-5c0-4.2-3.4-6.3-10.1-6.3h-6.7v13h7.6C101,90.5,103.3,90,105,88.9z"/>
	</g>
</g>
</svg>
