<?xml version="1.0" encoding="utf-8"?>
<!-- Generator: Adobe Illustrator 19.2.1, SVG Export Plug-In . SVG Version: 6.00 Build 0)  -->
<svg version="1.1" xmlns="http://www.w3.org/2000/svg" xmlns:xlink="http://www.w3.org/1999/xlink" x="0px" y="0px"
	 viewBox="0 0 128 128" style="enable-background:new 0 0 128 128;" xml:space="preserve">
<style type="text/css">
	.st0{fill:none;stroke:#FBB03B;stroke-width:3;stroke-miterlimit:10;}
	.st1{fill-rule:evenodd;clip-rule:evenodd;fill:none;stroke:#FBB03B;stroke-width:3;stroke-miterlimit:10;}
	.st2{fill:#FBB03B;}
	.st3{fill:none;stroke:#FBB03B;stroke-width:3;stroke-linecap:round;stroke-linejoin:round;stroke-miterlimit:10;}
</style>
<g id="email">
</g>
<g id="github">
	<path class="st1" d="M64.2,13.5c-28.6,0-51.8,23.2-51.8,51.8c0,22.9,14.8,42.3,35.4,49.2c2.6,0.5,3.5-1.1,3.5-2.5
		c0-1.2,0-4.5-0.1-8.8c-14.4,3.1-17.5-6.9-17.5-6.9c-2.4-6-5.8-7.6-5.8-7.6c-4.7-3.2,0.4-3.2,0.4-3.2c5.2,0.4,7.9,5.3,7.9,5.3
		c4.6,7.9,12.1,5.6,15.1,4.3c0.5-3.3,1.8-5.6,3.3-6.9c-11.5-1.3-23.6-5.8-23.6-25.6c0-5.7,2-10.3,5.3-13.9
		c-0.5-1.3-2.3-6.6,0.5-13.7c0,0,4.4-1.4,14.3,5.3c4.1-1.1,8.6-1.7,13-1.7c4.4,0,8.8,0.6,13,1.7c9.9-6.7,14.2-5.3,14.2-5.3
		c2.8,7.1,1,12.4,0.5,13.7c3.3,3.6,5.3,8.2,5.3,13.9c0,19.9-12.1,24.3-23.7,25.6c1.9,1.6,3.5,4.8,3.5,9.6c0,6.9-0.1,12.5-0.1,14.2
		c0,1.4,0.9,3,3.6,2.5c20.6-6.9,35.4-26.3,35.4-49.2C116,36.7,92.8,13.5,64.2,13.5z"/>
</g>
<g id="tel">
</g>
<g id="twitter">
</g>
<g id="front">
</g>
<g id="tools">
</g>
<g id="framework">
</g>
<g id="language">
</g>
</svg>
