<?xml version="1.0" encoding="utf-8"?>
<!-- Generator: Adobe Illustrator 19.2.1, SVG Export Plug-In . SVG Version: 6.00 Build 0)  -->
<svg version="1.1" xmlns="http://www.w3.org/2000/svg" xmlns:xlink="http://www.w3.org/1999/xlink" x="0px" y="0px"
	 viewBox="0 0 128 128" style="enable-background:new 0 0 128 128;" xml:space="preserve">
<style type="text/css">
	.st0{fill:none;stroke:#FBB03B;stroke-width:3;stroke-miterlimit:10;}
	.st1{fill-rule:evenodd;clip-rule:evenodd;fill:none;stroke:#FBB03B;stroke-width:3;stroke-miterlimit:10;}
	.st2{fill:#FBB03B;}
	.st3{fill:none;stroke:#FBB03B;stroke-width:3;stroke-linecap:round;stroke-linejoin:round;stroke-miterlimit:10;}
</style>
<g id="email">
</g>
<g id="github">
</g>
<g id="tel">
	<path class="st0" d="M92.5,29.9c0-7.4-6-13.4-13.4-13.4H48.8c-7.4,0-13.4,6-13.4,13.4v71.3c0,7.4,6,13.4,13.4,13.4h30.3
		c7.4,0,13.4-6,13.4-13.4V29.9z M64.9,109.5c-2.4,0-4.4-2-4.4-4.4c0-2.4,2-4.4,4.4-4.4c2.4,0,4.4,2,4.4,4.4
		C69.3,107.6,67.3,109.5,64.9,109.5z M86.5,88.5c0,4.4-3.6,8-8,8h-30c-4.4,0-8-3.6-8-8v-56c0-4.4,3.6-8,8-8h30c4.4,0,8,3.6,8,8V88.5
		z"/>
</g>
<g id="twitter">
</g>
<g id="front">
</g>
<g id="tools">
</g>
<g id="framework">
</g>
<g id="language">
</g>
</svg>
