<?xml version="1.0" encoding="utf-8"?>
<!-- Generator: Adobe Illustrator 19.2.1, SVG Export Plug-In . SVG Version: 6.00 Build 0)  -->
<svg version="1.1" xmlns="http://www.w3.org/2000/svg" xmlns:xlink="http://www.w3.org/1999/xlink" x="0px" y="0px"
	 viewBox="0 0 128 128" style="enable-background:new 0 0 128 128;" xml:space="preserve">
<style type="text/css">
	.st0{fill:none;stroke:#FBB03B;stroke-width:3;stroke-miterlimit:10;}
	.st1{fill-rule:evenodd;clip-rule:evenodd;fill:none;stroke:#FBB03B;stroke-width:3;stroke-miterlimit:10;}
	.st2{fill:#FBB03B;}
	.st3{fill:none;stroke:#FBB03B;stroke-width:3;stroke-linecap:round;stroke-linejoin:round;stroke-miterlimit:10;}
</style>
<g id="email">
	<g>
		<path class="st0" d="M96.8,19.7c6.7,3.6,11.9,8.4,15.5,14.5c3.6,6.1,5.4,13,5.4,20.7c0,6.1-1.2,11.8-3.6,17.1
			c-2.4,5.3-5.8,9.5-10.1,12.7c-4.3,3.2-9.1,4.8-14.5,4.8c-3.4,0-6.3-0.9-8.6-2.7c-2.3-1.8-3.8-4.3-4.5-7.5
			c-2.5,2.8-5.5,5.3-9.2,7.3c-3.7,2-7.4,3-11.2,3c-4.2,0-8-0.9-11.3-2.7c-3.3-1.8-5.9-4.4-7.8-7.7c-1.8-3.3-2.7-7.2-2.6-11.7
			c0-5.3,1.2-10.1,3.5-14.5c2.3-4.4,5.6-7.8,9.8-10.3c4.2-2.5,8.9-3.8,14.2-3.8c8.7,0,14.5,3.4,17.6,10.2l2.1-8.3h10.1l-4.3,30.9
			c-0.1,0.5-0.1,1.1-0.1,2.1c0,3.8,1.6,5.7,4.8,5.7c2.6,0,5.1-1.1,7.5-3.3c2.4-2.2,4.3-5.2,5.8-9c1.5-3.8,2.2-7.9,2.2-12.4
			c0-6-1.4-11.4-4.3-16.3c-2.8-4.9-7-8.7-12.4-11.6c-5.4-2.8-11.9-4.3-19.4-4.3c-12.5,0-22.6,2.7-30.4,8
			c-7.7,5.3-13.3,11.6-16.6,18.9c-3.3,7.2-4.9,13.9-4.9,19.8c0,7.9,1.6,14.5,4.7,19.9c3.1,5.4,7.5,9.4,13,12
			c5.5,2.6,11.9,3.9,19.2,3.9c8.7,0,17.2-2.6,25.5-7.8l4.5,6.2c-4.3,3.3-9.3,5.8-14.9,7.5c-5.6,1.7-11.2,2.5-16.7,2.5
			c-8.6,0-16.3-1.6-23.1-4.9c-6.8-3.3-12.1-8.2-16.1-14.8c-3.9-6.6-5.9-14.5-5.9-24c0-8.5,2.2-17,6.7-25.6C21,35.9,28,28.7,37.5,23
			c9.5-5.7,21.4-8.6,35.6-8.6C82.2,14.3,90.1,16.1,96.8,19.7z M70.3,77.5c3-2.2,5.1-5.2,6.4-8.9l1.3-9.4c-0.4-3.4-1.9-6.1-4.6-8.2
			c-2.7-2.1-6-3.2-9.9-3.2c-3.2,0-6.2,0.8-8.9,2.5c-2.7,1.7-4.8,3.9-6.4,6.8c-1.6,2.8-2.4,5.9-2.4,9.1c0,4.2,1.3,7.7,4,10.5
			c2.7,2.8,6.2,4.1,10.5,4.1C63.9,80.8,67.3,79.7,70.3,77.5z"/>
	</g>
</g>
<g id="github">
</g>
<g id="tel">
</g>
<g id="twitter">
</g>
<g id="front">
</g>
<g id="tools">
</g>
<g id="framework">
</g>
<g id="language">
</g>
</svg>
