<?xml version="1.0" encoding="utf-8"?>
<!-- Generator: Adobe Illustrator 19.2.1, SVG Export Plug-In . SVG Version: 6.00 Build 0)  -->
<svg version="1.1" xmlns="http://www.w3.org/2000/svg" xmlns:xlink="http://www.w3.org/1999/xlink" x="0px" y="0px"
	 viewBox="0 0 128 128" style="enable-background:new 0 0 128 128;" xml:space="preserve">
<style type="text/css">
	.st0{fill:none;stroke:#FBB03B;stroke-width:3;stroke-miterlimit:10;}
	.st1{fill-rule:evenodd;clip-rule:evenodd;fill:none;stroke:#FBB03B;stroke-width:3;stroke-miterlimit:10;}
	.st2{fill:#FBB03B;}
	.st3{fill:none;stroke:#FBB03B;stroke-width:3;stroke-linecap:round;stroke-linejoin:round;stroke-miterlimit:10;}
</style>
<g id="email">
</g>
<g id="github">
</g>
<g id="tel">
</g>
<g id="twitter">
	<g id="XMLID_1_">
		<g id="XMLID_2_">
			<path id="XMLID_3_" class="st0" d="M43.4,111.2c43.8,0,67.8-36.3,67.8-67.8c0-1,0-2.1-0.1-3.1c4.7-3.4,8.7-7.6,11.9-12.3
				c-4.3,1.9-8.9,3.2-13.7,3.8c4.9-3,8.7-7.6,10.5-13.2c-4.6,2.7-9.7,4.7-15.1,5.8c-4.3-4.6-10.5-7.5-17.4-7.5
				c-13.2,0-23.8,10.7-23.8,23.8c0,1.9,0.2,3.7,0.6,5.4c-19.8-1-37.4-10.5-49.1-24.9c-2,3.5-3.2,7.6-3.2,12
				c0,8.3,4.2,15.6,10.6,19.8c-3.9-0.1-7.6-1.2-10.8-3c0,0.1,0,0.2,0,0.3c0,11.5,8.2,21.2,19.1,23.4c-2,0.5-4.1,0.8-6.3,0.8
				c-1.5,0-3-0.2-4.5-0.4c3,9.5,11.8,16.4,22.3,16.6C34,97,23.8,100.8,12.6,100.8c-1.9,0-3.8-0.1-5.7-0.3
				C17.5,107.3,30,111.2,43.4,111.2"/>
		</g>
	</g>
</g>
<g id="front">
</g>
<g id="tools">
</g>
<g id="framework">
</g>
<g id="language">
</g>
</svg>
