<?xml version="1.0" encoding="utf-8"?>
<!-- Generator: Adobe Illustrator 19.2.1, SVG Export Plug-In . SVG Version: 6.00 Build 0)  -->
<svg version="1.1" id="Layer_1" xmlns="http://www.w3.org/2000/svg" xmlns:xlink="http://www.w3.org/1999/xlink" x="0px" y="0px"
	 viewBox="0 0 60 60" style="enable-background:new 0 0 60 60;" xml:space="preserve">
<style type="text/css">
	.st0{fill:#003876;}
	.st1{fill:#FFFFFF;}
	.st2{fill:#E03A3E;}
</style>
<rect x="0.3" y="15.1" class="st0" width="59.4" height="29.8"/>
<polygon class="st1" points="0.3,25 12.8,25 0.3,18.7 0.3,15.1 7.5,15.1 25,23.9 25,15.1 34.9,15.1 34.9,23.9 52.5,15.1 59.7,15.1 
	59.7,18.7 47.1,25 59.7,25 59.7,35 47.1,35 59.7,41.3 59.7,44.9 52.5,44.9 34.9,36.1 34.9,44.9 25,44.9 25,36.1 7.5,44.9 0.3,44.9 
	0.3,41.3 12.8,35 0.3,35 "/>
<g>
	<polygon class="st2" points="55.1,15.1 35.2,25 40,25 59.7,15.1 	"/>
	<polygon class="st2" points="59.7,44.9 39.9,35 44.7,35 59.7,42.5 	"/>
	<polygon class="st2" points="20.2,25 0.3,15.1 0.3,17.5 15.4,25 	"/>
	<polygon class="st2" points="20.1,35 0.3,44.9 5,44.9 24.9,35 	"/>
	<polygon class="st2" points="0.3,27.1 27.1,27.1 27.1,15.1 32.9,15.1 32.9,27.1 59.7,27.1 59.7,32.9 32.9,32.9 32.9,44.9 
		27.1,44.9 27.1,32.9 0.3,32.9 	"/>
</g>
</svg>
