<?xml version="1.0" encoding="utf-8"?>
<!-- Generator: Adobe Illustrator 19.2.1, SVG Export Plug-In . SVG Version: 6.00 Build 0)  -->
<svg version="1.1" id="Layer_1" xmlns="http://www.w3.org/2000/svg" xmlns:xlink="http://www.w3.org/1999/xlink" x="0px" y="0px"
	 viewBox="0 0 60 60" enable-background="new 0 0 60 60" xml:space="preserve">
<g>
	<polygon fill="#FFCD34" points="8.4,54 3.6,0.1 56.4,0.1 51.6,54 30,59.9 	"/>
	<polygon fill="#F8DC3E" points="30,55.4 47.5,50.5 51.6,4.5 30,4.5 	"/>
	<g>
		<g>
			<polygon fill="#FFFFFF" points="30,22.7 30,29.3 38.2,31.1 37.4,39.6 30,41.6 30,48.5 43.6,44.8 43.7,43.6 45.4,26.2 			"/>
			<polygon fill="#FFFFFF" points="43.5,10.7 30,7 30,13.9 43.5,17.7 			"/>
		</g>
		<g>
			<g>
				<polygon fill="#EBEBEB" points="30.1,22.7 21.5,24.5 22.6,15.8 30,13.9 30,13.9 30,7 30,7 16.4,10.7 14.7,24.5 14.7,24.5 
					14.7,24.5 14.7,24.5 14.7,24.5 15.3,31.1 15.3,31.1 16.5,44.8 30,48.5 30.1,48.5 30.1,41.6 30,41.6 22.7,39.6 21.9,31.1 
					30.1,29.3 				"/>
			</g>
		</g>
	</g>
</g>
</svg>
