<?xml version="1.0" encoding="utf-8"?>
<!-- Generator: Adobe Illustrator 19.2.1, SVG Export Plug-In . SVG Version: 6.00 Build 0)  -->
<svg version="1.1" id="Layer_1" xmlns="http://www.w3.org/2000/svg" xmlns:xlink="http://www.w3.org/1999/xlink" x="0px" y="0px"
	 viewBox="0 0 60 60" style="enable-background:new 0 0 60 60;" xml:space="preserve">
<style type="text/css">
	.st0{fill:#8CC84B;}
</style>
<g>
	<path class="st0" d="M27.6,0.8C29,0,31,0,32.4,0.8C39.9,5,47.3,9.2,54.7,13.4c1.4,0.8,2.3,2.3,2.3,4v25.3c0,1.7-1,3.3-2.5,4
		c-7.4,4.2-14.8,8.4-22.2,12.5c-1.5,0.9-3.5,0.8-4.9-0.1c-2.2-1.3-4.4-2.6-6.7-3.9c-0.5-0.3-1-0.5-1.3-0.9c0.3-0.4,0.8-0.4,1.2-0.6
		c0.9-0.3,1.8-0.8,2.6-1.2c0.2-0.1,0.5-0.1,0.7,0c1.9,1.1,3.8,2.2,5.7,3.3c0.4,0.2,0.8-0.1,1.2-0.3c7.3-4.1,14.6-8.2,21.8-12.3
		c0.3-0.1,0.4-0.4,0.4-0.7c0-8.3,0-16.7,0-25c0-0.3-0.2-0.6-0.5-0.8c-7.4-4.2-14.8-8.3-22.1-12.5c-0.3-0.2-0.6-0.2-0.9,0
		c-7.4,4.2-14.8,8.3-22.1,12.5c-0.3,0.1-0.5,0.4-0.5,0.8c0,8.3,0,16.7,0,25c0,0.3,0.1,0.6,0.4,0.7c2,1.1,3.9,2.2,5.9,3.3
		c1.1,0.6,2.5,1,3.7,0.5c1.1-0.4,1.8-1.5,1.8-2.6c0-8.3,0-16.6,0-24.9c0-0.4,0.3-0.7,0.7-0.6c0.9,0,1.9,0,2.8,0
		c0.4,0,0.7,0.4,0.6,0.8c0,8.3,0,16.7,0,25c0,2.2-0.9,4.6-3,5.7c-2.5,1.3-5.7,1-8.2-0.2c-2.2-1.1-4.2-2.4-6.4-3.5
		c-1.5-0.8-2.5-2.4-2.5-4V17.4c0-1.6,1-3.2,2.4-4C12.7,9.2,20.2,5,27.6,0.8z"/>
	<path class="st0" d="M34,18.3c3.2-0.2,6.7-0.1,9.6,1.5c2.3,1.2,3.5,3.8,3.5,6.3c-0.1,0.3-0.4,0.5-0.7,0.5c-0.9,0-1.9,0-2.8,0
		c-0.4,0-0.6-0.4-0.7-0.7c-0.3-1.2-0.9-2.4-2-3c-1.7-0.9-3.7-0.8-5.6-0.8c-1.4,0.1-2.9,0.2-4,1c-0.9,0.6-1.2,1.9-0.8,2.8
		c0.3,0.7,1.1,0.9,1.8,1.2c3.9,1,8,0.9,11.8,2.3c1.6,0.5,3.1,1.6,3.7,3.3c0.7,2.2,0.4,4.9-1.2,6.7c-1.3,1.5-3.1,2.3-5,2.7
		c-2.5,0.6-5,0.6-7.6,0.3c-2.4-0.3-4.8-0.9-6.6-2.5c-1.6-1.4-2.3-3.5-2.2-5.5c0-0.3,0.4-0.6,0.7-0.6c0.9,0,1.9,0,2.8,0
		c0.4,0,0.7,0.3,0.7,0.7c0.2,1.1,0.6,2.3,1.6,3c1.9,1.2,4.3,1.2,6.5,1.2c1.8-0.1,3.9-0.1,5.3-1.3c0.8-0.7,1-1.8,0.8-2.8
		c-0.2-0.8-1.1-1.2-1.9-1.5c-3.8-1.2-8-0.8-11.8-2.1c-1.5-0.5-3-1.6-3.6-3.2c-0.8-2.2-0.4-5,1.3-6.7C29.2,19.2,31.7,18.6,34,18.3
		L34,18.3z"/>
</g>
</svg>
