<?xml version="1.0" encoding="utf-8"?>
<!-- Generator: Adobe Illustrator 19.2.1, SVG Export Plug-In . SVG Version: 6.00 Build 0)  -->
<svg version="1.1" id="Layer_1" xmlns="http://www.w3.org/2000/svg" xmlns:xlink="http://www.w3.org/1999/xlink" x="0px" y="0px"
	 viewBox="0 0 60 60" style="enable-background:new 0 0 60 60;" xml:space="preserve">
<style type="text/css">
	.st0{fill:#FFFFFF;}
	.st1{fill:#8ED6FB;}
	.st2{fill:#1C78C0;}
</style>
<g>
	<path class="st0" d="M30,0.2l26.4,14.9v29.8L30,59.8L3.6,44.9V15.1L30,0.2z"/>
	<path class="st1" d="M51.7,43.9L30.9,55.7v-9.2l13-7.1L51.7,43.9z M53.1,42.6V18l-7.6,4.4v15.8L53.1,42.6L53.1,42.6z M8.2,43.9
		L29,55.7v-9.2l-13-7.1L8.2,43.9L8.2,43.9z M6.8,42.6V18l7.6,4.4v15.8L6.8,42.6L6.8,42.6z M7.7,16.4L29,4.3v8.9l-13.7,7.5l-0.1,0.1
		L7.7,16.4z M52.2,16.4L30.9,4.3v8.9l13.7,7.5l0.1,0.1L52.2,16.4z"/>
	<path class="st2" d="M29,44.4l-12.8-7V23.5L29,30.8V44.4 M30.9,44.4l12.8-7V23.5l-12.8,7.4V44.4 M17.1,21.8L30,14.8l12.8,7.1
		L30,29.3L17.1,21.8"/>
</g>
</svg>
