<?xml version="1.0" encoding="utf-8"?>
<!-- Generator: Adobe Illustrator 19.2.1, SVG Export Plug-In . SVG Version: 6.00 Build 0)  -->
<svg version="1.1" xmlns="http://www.w3.org/2000/svg" xmlns:xlink="http://www.w3.org/1999/xlink" x="0px" y="0px"
	 viewBox="0 0 128 128" style="enable-background:new 0 0 128 128;" xml:space="preserve">
<style type="text/css">
	.st0{fill:none;stroke:#FBB03B;stroke-width:3;stroke-miterlimit:10;}
	.st1{fill-rule:evenodd;clip-rule:evenodd;fill:none;stroke:#FBB03B;stroke-width:3;stroke-miterlimit:10;}
	.st2{fill:#FBB03B;}
	.st3{fill:none;stroke:#FBB03B;stroke-width:3;stroke-linecap:round;stroke-linejoin:round;stroke-miterlimit:10;}
</style>
<g id="email">
</g>
<g id="github">
</g>
<g id="tel">
</g>
<g id="twitter">
</g>
<g id="front">
</g>
<g id="tools">
</g>
<g id="framework">
	<path class="st0" d="M104.2,65.6l10.8-5.7l-1.6-8.9l-11.2-1.6c-1.3-4-3.2-7.8-5.6-11.1l4.3-10.6L94,21.9l-8.7,5.4
		c-3.8-2.4-8-2.5-12.5-3.5l-3.3-8.3h-9l-3.1,7.8c-4.5,0.8-8.8,1.4-12.7,3.6l-9.3-6.2l-6.9,5.6l4.2,10.2c-2.5,3.1-4.5,6.6-6,10.4
		l-12.1,1.7L13,57.4l10.7,5.7c0.1,4,1.5,11.1,1.5,11.1l-8.4,9.3l4.5,7.8l11.7-2.5c2.4,3,5.3,5.7,8.4,7.9L41,109l8.5,3.1l7-8.9
		c2.5,0.5,5,0.7,7.6,0.7c1.5,0,3.1-0.1,4.6-0.3l7.3,9.3l8.5-3.1l-0.4-11.3c3.5-2,6.6-4.6,9.3-7.5l11.8,2.5l4.5-7.8l-7.8-8.7
		C103.1,73.4,103.9,69.6,104.2,65.6z M64,81.8c-10.4,0-18.8-8.7-18.8-19.3c0-10.7,8.4-19.3,18.8-19.3c10.4,0,18.8,8.7,18.8,19.3
		C82.8,73.2,74.4,81.8,64,81.8z"/>
</g>
<g id="language">
</g>
</svg>
