<?xml version="1.0" encoding="utf-8"?>
<!-- Generator: Adobe Illustrator 19.2.1, SVG Export Plug-In . SVG Version: 6.00 Build 0)  -->
<svg version="1.1" id="Layer_1" xmlns="http://www.w3.org/2000/svg" xmlns:xlink="http://www.w3.org/1999/xlink" x="0px" y="0px"
	 viewBox="0 0 60 60" style="enable-background:new 0 0 60 60;" xml:space="preserve">
<style type="text/css">
	.st0{fill:#B3B3B3;}
	.st1{fill:#AF2B2D;}
	.st2{fill:#DF2E31;}
	.st3{fill:#F2F2F2;}
</style>
<g id="g12" transform="scale(0.1,0.1)">
	<path id="path14" class="st0" d="M299.1,4.3L20.9,102.2l44,364.6l234.6,128.9L535.2,465l44-364.6
		L299.1,4.3z"/>
	<path id="path16" class="st1" d="M551.4,121.5L298.5,35.3v529.6l212-117.3L551.4,121.5z"/>
	<path id="path18" class="st2" d="M52.1,123.1l37.7,326l208.7,115.8V35.3L52.1,123.1L52.1,123.1z"
		/>
	<path id="path20" class="st3" d="M357.1,298.7l-58.2-121.5l-51.2,121.5L357.1,298.7L357.1,298.7z
		 M379.3,349.8H225.1l-34.5,86.3l-64.2,1.2l172-382.7l178,382.7H417L379.3,349.8L379.3,349.8z"/>
	<path id="path22" class="st0" d="M298.5,54.5l0.5,122.7L357,298.8h-58.4l-0.1,50.9l80.8,0.1
		l37.8,87.5l61.4,1.1L298.5,54.5z"/>
</g>
</svg>
