<?xml version="1.0" encoding="utf-8"?>
<!-- Generator: Adobe Illustrator 19.2.1, SVG Export Plug-In . SVG Version: 6.00 Build 0)  -->
<svg version="1.1" id="Layer_1" xmlns="http://www.w3.org/2000/svg" xmlns:xlink="http://www.w3.org/1999/xlink" x="0px" y="0px"
	 viewBox="0 0 60 60" style="enable-background:new 0 0 60 60;" xml:space="preserve">
<style type="text/css">
	.st0{fill:#D34A47;}
</style>
<g>
	<path class="st0" d="M37.2,57.8l0.6-9.5l1.6-2.7c0,0-3.6,1.5-9.6,1.5c-6,0-9.5-1.4-9.5-1.4l1.8,2.9l0.6,9.2c0,1,3.3,1.8,7.3,1.8
		C34,59.6,37.2,58.8,37.2,57.8 M35.4,13.6l1.2-4.7l6.6-7l-1.7-1.5l-7,7.4l-1.4,5.6c-1,0-2.1-0.1-3.1-0.1c-7.4,0-13.3,0.8-13.3,1.9
		c0,1,6,1.9,13.3,1.9c7.4,0,13.3-0.8,13.3-1.9C43.3,14.6,40.1,13.9,35.4,13.6"/>
	<path class="st0" d="M43.2,2c0.2-0.2-0.1-0.7-0.6-1.1c-0.5-0.4-1-0.6-1.2-0.4c-0.2,0.2,0.1,0.7,0.6,1.1C42.5,2,43.1,2.1,43.2,2
		 M36.9,34.7c-0.2-1.5,3.3-3.7,2.4-3.8c-1.9,0.1-2.9,2.2-3.8,4.5c-0.4,0.8-1.6,4.3-2.3,3.9c-0.8-0.4,1-3.3,1.5-5
		c-0.6,0.4-2.7,2.1-3.3,0.5c-0.9,0.8-2.8,1.2-2.6-0.8c-0.5,0.8-1.5,2-2.8,1.5c-1.7-0.6,1-6,1.6-5.7c0.7,0.3-0.1,1.5-0.3,2
		c-0.5,1-1,2.3-0.6,2.6c0.6,0.5,2.2-1.7,2.3-1.8c0.3-0.4,1.2-3.1,1.9-2.8c0.7,0.3-1.8,3.8-0.8,4.5c0.2,0.1,0.9-0.1,1.4-0.6
		c0.3-0.3,0.2-1,1.2-3.4c1-2.4,1.9-5.3,2.6-5.1c0.7,0.2,0.1,1.7-0.1,2.3c-1.1,2.7-3.1,7-2.2,6.7c0.9-0.3,1.4-0.4,2.3-1.4
		c0.9-1.1,0.9-2.8,1.5-2.8c0.6,0,0.5,0.6,0.4,1c0.6-0.7,2.9-2.1,3.4-0.7c0.6,1.7-3.2,4.2-2.3,4c0.9-0.1,2.5-1.1,3.1-2l1.8-16.1
		c0,0-1.8,1.5-13.3,1.5c-11.5,0-13.1-1.5-13.1-1.5l1.5,14.7c0.8-2.3,2.7-6.9,5.8-6.8c1.4,0.1,3.2,2.7,1.6,2.8
		c-0.7,0-0.7-1.3-1.5-1.5c-0.6-0.1-1.4,0.3-1.9,0.8c-1,1-3.2,4.9-2.9,6.9c0.4,2.5,3.5-0.9,4-1.9c0.4-0.7,0.6-2.8,1.4-2.6
		c0.8,0.2-0.1,2.4-0.7,4.3c-0.7,2.1-1,4.4-1.8,4.1c-0.8-0.3,0.5-3,0.5-3.5c-0.8,0.7-2.2,2.5-4,1.6l0.9,9.1c0,0,2.5,2,10.1,2
		s10.2-2,10.2-2L41.1,34C40.2,34.9,37.1,36.6,36.9,34.7"/>
</g>
</svg>
