<?xml version="1.0" encoding="utf-8"?>
<!-- Generator: Adobe Illustrator 19.2.1, SVG Export Plug-In . SVG Version: 6.00 Build 0)  -->
<svg version="1.1" id="Layer_1" xmlns="http://www.w3.org/2000/svg" xmlns:xlink="http://www.w3.org/1999/xlink" x="0px" y="0px"
	 viewBox="0 0 60 60" style="enable-background:new 0 0 60 60;" xml:space="preserve">
<style type="text/css">
	.st0{fill:#0868AC;}
</style>
<g>
	<path class="st0" d="M4,14.8c-5.3,7.6-4.6,17.4-0.6,25.5c0.1,0.2,0.2,0.4,0.3,0.6c0.1,0.1,0.1,0.2,0.2,0.4c0,0.1,0.1,0.1,0.1,0.2
		c0.1,0.1,0.1,0.2,0.2,0.4c0.1,0.2,0.3,0.4,0.4,0.7c0.1,0.1,0.1,0.2,0.2,0.4C5,43,5.2,43.3,5.3,43.5c0.1,0.1,0.1,0.2,0.2,0.3
		c0.2,0.3,0.4,0.6,0.6,0.9c0,0,0,0,0,0c0,0,0.1,0.1,0.1,0.1c0.2,0.3,0.4,0.5,0.6,0.8C6.9,45.8,7,45.9,7.1,46
		c0.2,0.2,0.4,0.4,0.5,0.7c0.1,0.1,0.1,0.2,0.2,0.2c0.2,0.3,0.5,0.6,0.8,0.9c0,0,0,0,0,0c0,0,0,0,0,0c0.3,0.3,0.5,0.5,0.8,0.8
		c0.1,0.1,0.2,0.2,0.2,0.2c0.2,0.2,0.4,0.4,0.6,0.6c0.1,0.1,0.2,0.2,0.3,0.2c0.3,0.3,0.6,0.5,0.8,0.8c0,0,0,0,0,0
		c0,0,0.1,0.1,0.1,0.1c0.3,0.2,0.5,0.4,0.8,0.6c0.1,0.1,0.2,0.2,0.3,0.3c0.2,0.2,0.4,0.3,0.6,0.5c0.1,0.1,0.2,0.2,0.3,0.3
		c0.2,0.2,0.5,0.3,0.7,0.5c0.1,0.1,0.2,0.1,0.3,0.2c0,0,0,0,0.1,0.1c0.2,0.2,0.5,0.3,0.7,0.5c0.1,0.1,0.2,0.1,0.3,0.2
		c0.4,0.2,0.7,0.5,1.1,0.7c0.1,0.1,0.2,0.1,0.3,0.2c0.3,0.2,0.5,0.3,0.8,0.5c0.1,0.1,0.3,0.2,0.5,0.2c0.2,0.1,0.4,0.2,0.6,0.3
		c0,0,0.1,0,0.1,0.1c0.1,0,0.2,0.1,0.2,0.1c0.3,0.1,0.6,0.3,0.9,0.4c0.1,0,0.1,0.1,0.2,0.1c0.4,0.2,0.7,0.3,1.1,0.4
		c0.1,0,0.2,0.1,0.3,0.1c0.3,0.1,0.7,0.3,1,0.4c0,0,0.1,0,0.1,0c0.4,0.1,0.8,0.3,1.1,0.4c0.1,0,0.2,0.1,0.3,0.1
		c0.4,0.1,0.8,0.3,1.2,0.3c25.5,4.6,32.9-15.3,32.9-15.3c-6.2,8.1-17.2,10.2-27.7,7.9c-0.4-0.1-0.8-0.2-1.2-0.3
		c-0.1,0-0.2-0.1-0.3-0.1c-0.4-0.1-0.8-0.2-1.1-0.4c-0.1,0-0.1,0-0.2-0.1c-0.3-0.1-0.7-0.2-1-0.4c-0.1,0-0.2-0.1-0.3-0.1
		c-0.4-0.1-0.7-0.3-1.1-0.4c-0.1,0-0.1-0.1-0.2-0.1c-0.3-0.1-0.6-0.3-0.9-0.4c-0.1,0-0.2-0.1-0.3-0.1c-0.2-0.1-0.5-0.2-0.7-0.4
		c-0.2-0.1-0.3-0.2-0.5-0.2c-0.3-0.2-0.6-0.3-0.8-0.5c-0.1-0.1-0.2-0.1-0.3-0.2c-0.4-0.2-0.7-0.4-1.1-0.7c-0.1-0.1-0.2-0.1-0.3-0.2
		c-0.3-0.2-0.5-0.3-0.8-0.5c-0.1-0.1-0.2-0.1-0.2-0.2c-0.2-0.2-0.5-0.4-0.7-0.5c-0.1-0.1-0.2-0.2-0.3-0.2c-0.2-0.2-0.4-0.3-0.7-0.5
		c-0.1-0.1-0.2-0.2-0.3-0.2c-0.3-0.2-0.6-0.5-0.8-0.7c0,0-0.1,0-0.1-0.1c-0.3-0.3-0.6-0.5-0.9-0.8c-0.1-0.1-0.2-0.2-0.2-0.2
		c-0.2-0.2-0.4-0.4-0.6-0.6c-0.1-0.1-0.2-0.2-0.2-0.2c-0.3-0.3-0.5-0.5-0.8-0.8c0,0,0,0,0,0c-0.3-0.3-0.5-0.6-0.8-0.9
		c-0.1-0.1-0.1-0.2-0.2-0.2c-0.2-0.2-0.4-0.5-0.6-0.7c-0.1-0.1-0.1-0.2-0.2-0.3c-0.2-0.3-0.4-0.6-0.6-0.9C5.6,29.5,3.5,18.6,8.2,9.6
		"/>
	<path class="st0" d="M20.4,8.4c-3.8,5.5-3.6,12.8-0.6,18.6c0.5,1,1.1,1.9,1.7,2.8c0.6,0.8,1.2,1.8,2,2.4c0.3,0.3,0.6,0.6,0.9,0.9
		c0.1,0.1,0.1,0.1,0.2,0.2c0.3,0.3,0.6,0.5,0.9,0.8c0,0,0,0,0,0c0,0,0,0,0,0c0.3,0.3,0.7,0.6,1,0.8c0.1,0.1,0.2,0.1,0.2,0.2
		c0.3,0.3,0.7,0.5,1.1,0.8c0,0,0,0,0,0c0.2,0.1,0.3,0.2,0.5,0.3c0.1,0.1,0.2,0.1,0.2,0.2c0.3,0.2,0.5,0.3,0.8,0.5c0,0,0.1,0,0.1,0.1
		c0.2,0.1,0.5,0.3,0.7,0.4c0.1,0,0.2,0.1,0.2,0.1c0.2,0.1,0.3,0.2,0.5,0.3c0,0,0.1,0,0.1,0c0.3,0.2,0.7,0.3,1,0.5
		c0.1,0,0.2,0.1,0.2,0.1c0.3,0.1,0.6,0.2,0.8,0.3c0.1,0,0.2,0.1,0.4,0.1c0.3,0.1,0.5,0.2,0.8,0.3c0.1,0,0.2,0.1,0.3,0.1
		c0.4,0.1,0.7,0.3,1.1,0.3c19.7,3.3,24.2-11.9,24.2-11.9c-4.1,5.9-12,8.7-20.5,6.5c-0.4-0.1-0.7-0.2-1.1-0.3c-0.1,0-0.2-0.1-0.3-0.1
		c-0.3-0.1-0.5-0.2-0.8-0.3c-0.1,0-0.2-0.1-0.4-0.1c-0.3-0.1-0.6-0.2-0.8-0.3c-0.1,0-0.2-0.1-0.2-0.1c-0.3-0.2-0.7-0.3-1-0.5
		c-0.2-0.1-0.3-0.2-0.5-0.3c-0.1-0.1-0.2-0.1-0.3-0.2c-0.2-0.1-0.4-0.2-0.7-0.4c-0.1,0-0.1-0.1-0.2-0.1c-0.3-0.2-0.5-0.3-0.8-0.5
		C32.1,31.1,32,31.1,32,31c-0.2-0.1-0.3-0.2-0.5-0.3c-0.4-0.2-0.7-0.5-1.1-0.8c-0.1-0.1-0.2-0.1-0.2-0.2c-3.7-2.9-6.6-6.9-8-11.4
		C20.7,13.6,21,8.3,23.5,4"/>
	<path class="st0" d="M34.1,3.7c-2.2,3.3-2.5,7.4-0.9,11.1c1.6,3.9,5,6.9,8.9,8.4c0.2,0.1,0.3,0.1,0.5,0.2c0.1,0,0.1,0,0.2,0.1
		c0.2,0.1,0.5,0.2,0.7,0.2c10.9,2.1,13.8-5.6,14.6-6.7c-2.6,3.7-6.9,4.6-12.2,3.3c-0.4-0.1-0.9-0.3-1.3-0.4c-0.5-0.2-1-0.4-1.5-0.6
		c-0.9-0.5-1.8-1-2.7-1.6C35.7,13.9,32.7,7,35.8,1.4"/>
</g>
</svg>
